<?xml version="1.0" encoding="utf-8"?>
<!-- Generator: Adobe Illustrator 27.7.0, SVG Export Plug-In . SVG Version: 6.00 Build 0)  -->
<svg version="1.1" id="Calque_1" xmlns="http://www.w3.org/2000/svg" xmlns:xlink="http://www.w3.org/1999/xlink" x="0px" y="0px"
	 viewBox="0 0 374 163" style="enable-background:new 0 0 374 163;" xml:space="preserve">
<style type="text/css">
	.st0{fill:#FEFEFF;}
	.st1{fill:#FAFAFA;}
	.st2{fill:#DDB701;}
	.st3{fill:#D92C00;}
	.st4{fill:#016BB4;}
	.st5{fill:#006FBC;}
	.st6{fill:#EBEBEB;}
	.st7{fill:#D71F02;}
	.st8{fill:#F0E7CD;}
	.st9{fill:#F3AE9B;}
	.st10{fill:#2A2A2A;}
	.st11{fill:#8C8C8C;}
	.st12{fill:#616262;}
	.st13{fill:#F6D001;}
	.st14{fill:#F6F6F6;}
	.st15{fill:#EA3D00;}
	.st16{fill:#E56548;}
	.st17{fill:#0092D1;}
	.st18{fill:#0093D2;}
	.st19{fill:#019BD6;}
	.st20{fill:#D7DFE5;}
	.st21{fill:#2678B8;}
	.st22{fill:#88AFC8;}
	.st23{fill:#B7B8B8;}
	.st24{fill:#0596D3;}
</style>
<g>
	<path class="st0" d="M12,0c0,59,0,118,0,177c-1.33,0-2.66,0-4,0C8,118,8,59,8,0C9.33,0,10.67,0,12,0z"/>
	<path class="st1" d="M371.5,177c0.25-2.13,0.72-4.26,0.72-6.4c-0.02-16.24-0.19-32.48-0.2-48.71c-0.04-39.43-0.01-78.87-0.02-118.3
		c0-1.2-0.16-2.39-0.24-3.59c0.75,0,1.5,0,2.25,0c0,59,0,118,0,177C373.17,177,372.33,177,371.5,177z"/>
	<path class="st2" d="M234.24,52.89c0.25,0.24,0.73,0.51,0.71,0.73c-0.36,3.89-0.8,7.77-1.18,11.66c-0.21,2.09-0.33,4.19-0.52,6.29
		c-0.31,3.32-0.67,6.63-0.98,9.95c-0.13,1.4-0.14,2.81-0.26,4.21c-0.23,2.59-0.51,5.17-0.73,7.76c-0.12,1.41-0.14,2.82-0.25,4.23
		c-0.34,4.44-0.67,8.88-1.04,13.31c-0.38,4.61-0.82,9.21-1.21,13.81c-0.27,3.16-0.5,6.32-0.78,9.48c-0.14,1.6-0.29,3.2-0.53,4.78
		c-0.05,0.33-0.47,0.78-0.8,0.88c-7.59,2.16-15.2,4.26-22.8,6.39c-2.82,0.79-5.67,1.5-8.41,2.51c-2.24,0.83-4.27,0.4-6.39-0.2
		c-4.4-1.25-8.82-2.44-13.21-3.7c-3.26-0.93-6.5-1.93-9.77-2.86c-2.38-0.68-4.79-1.25-7.17-1.93c-0.89-0.25-1.36-0.81-1.43-1.89
		c-0.22-3.19-0.64-6.38-0.94-9.57c-0.2-2.05-0.33-4.1-0.51-6.15c-0.32-3.61-0.68-7.21-0.99-10.82c-0.2-2.38-0.31-4.77-0.51-7.15
		c-0.21-2.59-0.49-5.17-0.72-7.75c-0.11-1.23-0.19-2.47-0.29-3.7c-0.33-3.77-0.68-7.55-0.99-11.32c-0.27-3.29-0.47-6.59-0.76-9.87
		c-0.29-3.32-0.67-6.63-0.98-9.95c-0.28-2.99-0.51-5.98-0.76-8.97c0.49-0.03,0.99-0.06,1.48-0.1c2.08,0.01,4.16,0.04,6.24,0.04
		c24.92,0,49.85,0,74.77,0c0.5,0,0.99-0.04,1.49-0.07C234.08,52.91,234.16,52.9,234.24,52.89z M163.54,115c0.01,2.5,0.01,5,0.02,7.5
		c0.04,0.28,0.09,0.56,0.13,0.85c0.48,0.37,0.91,0.94,1.45,1.09c4.48,1.22,9,2.32,13.48,3.53c3.05,0.82,6.05,1.79,9.09,2.66
		c1.37,0.4,1.55,0.24,1.55-1.13c-0.01-5.62-0.02-11.24-0.02-16.86c0-13.45-0.01-26.9,0.02-40.34c0-1.15-0.26-1.62-1.52-1.57
		c-2.55,0.1-5.1,0.03-7.89,0.03c0,15.9,0,31.93,0,48.14c-0.89-0.45-1.47-0.86-2.12-1.05c-1.97-0.58-3.98-1.05-5.96-1.6
		c-2.48-0.68-4.94-1.4-7.41-2.1c-0.24-0.11-0.47-0.21-0.82-0.37C163.54,114.29,163.54,114.64,163.54,115z M192.5,101
		c0,12.91,0,25.82,0,38.74c0,0.33-0.02,0.67,0.01,1c0.08,0.84,0.51,1.16,1.36,0.95c2.57-0.63,5.16-1.19,7.72-1.85
		c2.92-0.76,5.83-1.57,8.73-2.4c2.87-0.82,5.73-1.64,8.56-2.57c0.47-0.15,1.03-0.82,1.09-1.3c0.41-3.11,0.7-6.24,1.01-9.36
		c0.06-0.58,0.01-1.17,0.07-1.74c0.3-2.79,0.66-5.58,0.93-8.38c0.3-3.21,0.5-6.43,0.78-9.65c0.31-3.54,0.68-7.08,0.97-10.62
		c0.15-1.78,0.11-3.57,0.28-5.34c0.45-4.52,1.02-9.03,1.45-13.56c0.4-4.24,0.69-8.49,1.02-12.74c0.14-1.8,0.02-1.92-1.81-1.92
		c-10.12,0-20.24,0-30.36,0c-1.69,0-1.82,0.14-1.82,1.88C192.5,75.09,192.5,88.04,192.5,101z"/>
	<path class="st3" d="M104.77,52.91c0.23,0,0.47,0,0.7,0c0.1,0,0.2,0,0.3,0c2.2,0,4.4,0,6.71,0c-0.18,2.42-0.34,4.66-0.53,6.9
		c-0.11,1.3-0.33,2.6-0.44,3.91c-0.27,2.95-0.51,5.9-0.75,8.85c-0.18,2.22-0.3,4.44-0.51,6.65c-0.3,3.19-0.69,6.37-0.98,9.56
		c-0.15,1.61-0.12,3.23-0.26,4.84c-0.31,3.65-0.68,7.29-1,10.94c-0.18,2.01-0.3,4.02-0.48,6.02c-0.41,4.59-0.88,9.17-1.27,13.75
		c-0.22,2.54-0.3,5.1-0.5,7.64c-0.2,2.49-0.48,4.98-0.77,7.47c-0.02,0.2-0.32,0.46-0.54,0.52c-4.79,1.38-9.57,2.75-14.37,4.09
		c-6.45,1.8-12.88,3.68-19.38,5.27c-1.31,0.32-2.91-0.42-4.35-0.81c-5.53-1.48-11.05-3-16.56-4.54c-4.69-1.31-9.38-2.66-14.05-4.04
		c-0.3-0.09-0.65-0.53-0.72-0.85c-0.17-0.89-0.21-1.8-0.29-2.7c-0.33-3.72-0.68-7.45-0.99-11.17c-0.19-2.3-0.3-4.6-0.5-6.9
		c-0.22-2.62-0.51-5.24-0.75-7.86c-0.18-2.01-0.32-4.02-0.5-6.02c-0.33-3.65-0.68-7.29-1-10.94c-0.11-1.27-0.15-2.56-0.27-3.83
		c-0.23-2.49-0.51-4.98-0.73-7.47c-0.13-1.44-0.15-2.88-0.28-4.32c-0.22-2.45-0.49-4.9-0.72-7.35c-0.11-1.15-0.16-2.3-0.25-3.46
		c-0.24-3.03-0.49-6.05-0.73-9.08c1,0.05,0.85-0.87,0.88-1.32c0.06-0.84,0.43-1.29,1.03-1.81c0.55-0.48,0.88-1.21,1.3-1.83
		c2.07-0.04,4.15-0.08,6.22-0.12c0.1,0,0.2,0,0.3,0c1.23,0,2.47,0,3.7,0c0.1,0,0.2,0,0.3,0c0.23,0,0.47,0,0.7,0c0.1,0,0.2,0,0.3,0
		c3.9,0,7.8,0,11.7,0c0.1,0,0.2,0,0.3,0c2.9,0,5.8,0,8.7,0c0.1,0,0.2,0,0.3,0c0.23,0,0.47,0,0.7,0c0.1,0,0.2,0,0.3,0
		c1.57,0,3.13,0,4.7,0c0.1,0,0.2,0,0.3,0c0.23,0,0.47,0,0.7,0c0.1,0,0.2,0,0.3,0c0.23,0,0.47,0,0.7,0c0.1,0,0.2,0,0.3,0
		c0.23,0,0.47,0,0.7,0c0.1,0,0.2,0,0.3,0c0.23,0,0.47,0,0.7,0c0.1,0,0.2,0,0.3,0c0.23,0,0.47,0,0.7,0c0.1,0,0.2,0,0.3,0
		c0.23,0,0.47,0,0.7,0c0.1,0,0.2,0,0.3,0c0.23,0,0.47,0,0.7,0c0.1,0,0.2,0,0.3,0c0.23,0,0.47,0,0.7,0c0.1,0,0.2,0,0.3,0
		c0.23,0,0.47,0,0.7,0c0.1,0,0.2,0,0.3,0c0.23,0,0.47,0,0.7,0c0.1,0,0.2,0,0.3,0c0.23,0,0.47,0,0.7,0c0.1,0,0.2,0,0.3,0
		c0.23,0,0.47,0,0.7,0c0.1,0,0.2,0,0.3,0c0.23,0,0.47,0,0.7,0c0.1,0,0.2,0,0.3,0c0.57,0,1.13,0,1.7,0c0.1,0,0.2,0,0.3,0
		c0.9,0,1.8,0,2.7,0c0.1,0,0.2,0,0.3,0c0.23,0,0.47,0,0.7,0c0.1,0,0.2,0,0.3,0c0.23,0,0.47,0,0.7,0c0.1,0,0.2,0,0.3,0
		c0.23,0,0.47,0,0.7,0c0.1,0,0.2,0,0.3,0c0.23,0,0.47,0,0.7,0c0.1,0,0.2,0,0.3,0c0.23,0,0.47,0,0.7,0c0.1,0,0.2,0,0.3,0
		c0.23,0,0.47,0,0.7,0c0.1,0,0.2,0,0.3,0c0.23,0,0.47,0,0.7,0c0.1,0,0.2,0,0.3,0c0.23,0,0.47,0,0.7,0c0.1,0,0.2,0,0.3,0
		c0.23,0,0.47,0,0.7,0c0.1,0,0.2,0,0.3,0c0.23,0,0.47,0,0.7,0c0.1,0,0.2,0,0.3,0c0.23,0,0.47,0,0.7,0c0.1,0,0.2,0,0.3,0
		c0.23,0,0.47,0,0.7,0c0.1,0,0.2,0,0.3,0c0.23,0,0.47,0,0.7,0c0.1,0,0.2,0,0.3,0c0.23,0,0.47,0,0.7,0c0.1,0,0.2,0,0.3,0
		c0.23,0,0.47,0,0.7,0c0.1,0,0.2,0,0.3,0c0.23,0,0.47,0,0.7,0c0.1,0,0.2,0,0.3,0c0.23,0,0.47,0,0.7,0.01
		C104.57,52.91,104.67,52.91,104.77,52.91z M70,70.46c-0.17,0.06-0.34,0.13-0.52,0.19c-3.91,0.02-7.83,0.05-11.74,0.05
		c-4.25,0-8.49-0.03-12.74-0.05c-0.17,0.02-0.35,0.03-0.52,0.05c-0.31,0.05-0.63,0.09-1.14,0.16c0.22,2.21,0.46,4.36,0.66,6.51
		c0.33,3.62,0.63,7.25,0.95,10.87c-0.29-0.01-0.73-0.14-0.84,0c-0.56,0.66,0.06,2.85,0.86,3.26c0.09,0.22,0.25,0.44,0.26,0.67
		c0.28,3.35,0.56,6.71,0.79,10.06c0.05,0.71,0.16,1.21,0.98,1.22c0.42-0.08,0.83-0.17,1.25-0.25c0.75,0,1.51-0.01,2.26-0.01
		c0.08,0,0.16,0,0.24,0c5.67,0,11.34,0,17,0.01c0.08,0,0.17,0,0.25,0c0.5,0.03,1.01,0.06,1.51,0.1c0.16,0.48,0.46,0.95,0.47,1.43
		c0.04,5.09,0.03,10.18,0.03,15.27c-0.66-0.14-1.32-0.24-1.97-0.42c-2.86-0.77-5.73-1.51-8.55-2.38c-0.51-0.16-1.1-0.88-1.18-1.41
		c-0.23-1.54-0.21-3.12-0.31-4.69c-0.06-0.93-0.17-1.85-0.25-2.73c-3.72,0-7.29,0-10.98,0c0,0.41-0.03,0.91,0,1.39
		c0.24,3.37,0.47,6.73,0.75,10.1c0.11,1.39,0.29,2.78,0.53,4.15c0.06,0.36,0.42,0.83,0.76,0.96c1.46,0.58,2.96,1.06,4.45,1.58
		c0.61,0.49,1.16,1.09,1.85,1.43c0.77,0.38,1.66,0.53,2.51,0.76c0.44,0.12,0.89,0.15,1.33,0.28c0.73,0.22,1.5,0.39,2.17,0.74
		c0.91,0.47,1.9,0.35,2.4-0.46c0.25,0.07,0.5,0.15,0.75,0.22c0.18,0.08,0.35,0.16,0.53,0.23c0.43,0.07,0.88,0.1,1.3,0.2
		c1.56,0.35,3.11,0.73,4.67,1.09c-0.25,0.68-0.69,1.35-0.71,2.04c-0.09,2.37-0.04,4.75-0.03,7.12c0.01,1.38,0.45,1.76,1.76,1.41
		c2.48-0.66,4.93-1.39,7.41-2.04c2.04-0.54,4.11-0.95,6.15-1.5c3.39-0.91,6.76-1.93,10.16-2.81c1.64-0.42,2.45-1.34,2.53-3.03
		c0.13-2.73,0.31-5.46,0.53-8.18c0.28-3.46,0.65-6.91,0.95-10.37c0.2-2.35,0.34-4.7,0.53-7.05c0.31-3.79,0.65-7.58,0.97-11.36
		c0.02-0.21,0-0.42,0.02-0.62c0.49-4.47,1.04-8.94,1.46-13.42c0.27-2.93,0.36-5.87,0.52-8.8c0.01-0.12,0.02-0.25,0.03-0.37
		c0.32-3.37,0.69-6.73,0.95-10.11c0.11-1.46-0.19-1.69-1.62-1.69c-10.25,0-20.49,0.01-30.74-0.02c-1.17,0-1.66,0.41-1.64,1.6
		C70.03,64.71,70,67.59,70,70.46z"/>
	<path class="st4" d="M353.75,53.04c1.2,0,2.4,0,3.59,0c-0.19,2.33-0.36,4.61-0.57,6.88c-0.33,3.56-0.7,7.11-1.01,10.66
		c-0.2,2.26-0.28,4.53-0.5,6.79c-0.29,3.02-0.67,6.04-0.98,9.06c-0.08,0.74,0.01,1.5-0.05,2.24c-0.22,2.5-0.48,4.99-0.71,7.49
		c-0.11,1.27-0.15,2.55-0.27,3.82c-0.31,3.15-0.65,6.29-0.97,9.43c-0.04,0.41-0.01,0.83-0.05,1.24c-0.33,4.02-0.67,8.04-0.98,12.07
		c-0.18,2.34-0.31,4.68-0.5,7.01c-0.28,3.36-0.6,6.72-0.92,10.18c-6.04,1.7-12.15,3.43-18.27,5.16c-5.36,1.52-10.73,3.04-16.09,4.55
		c-0.3,0.08-0.65,0.09-0.95,0.01c-3.51-0.95-7.02-1.92-10.53-2.9c-4.6-1.29-9.2-2.59-13.8-3.9c-3.03-0.86-6.04-1.8-9.09-2.55
		c-1.09-0.27-1.31-0.73-1.38-1.75c-0.25-3.61-0.64-7.21-0.96-10.81c-0.12-1.36-0.16-2.72-0.27-4.07c-0.23-2.7-0.5-5.4-0.72-8.1
		c-0.12-1.44-0.14-2.89-0.28-4.33c-0.2-2.12-0.48-4.24-0.69-6.36c-0.14-1.44-0.18-2.88-0.31-4.32c-0.23-2.58-0.5-5.15-0.72-7.73
		c-0.19-2.26-0.3-4.52-0.49-6.77c-0.21-2.37-0.49-4.74-0.72-7.11c-0.14-1.48-0.2-2.96-0.32-4.44c-0.24-2.95-0.49-5.9-0.75-8.85
		c-0.25-2.87-0.5-5.74-0.75-8.61c-0.11-1.27-0.21-2.54-0.33-4c1.21,0,2.27,0,3.33,0c-0.36,0.24-0.73,0.49-1.09,0.72
		c-0.46,0.29-1.34,0.62-1.31,0.84c0.15,1.34-0.97,2.89,0.6,4.03c0.2,0.14,0.28,0.6,0.24,0.9c-0.25,2.1,0.92,3.5,3.08,3.47
		c3.82-0.04,7.65-0.09,11.47-0.25c8.75-0.36,17.54,0.86,26.25-0.74c0,2.84,0,5.67,0.01,8.51c-0.34,0.05-0.69,0.1-1.03,0.16
		c-1.31,0-2.61,0.01-3.92,0.01c-0.11-0.04-0.23-0.13-0.34-0.13c-6.5-0.01-13-0.01-19.51-0.01c-0.08,0-0.15,0.06-0.23,0.09
		c-0.46,0-0.93,0.01-1.39,0.01c-0.06,0.02-0.11,0.03-0.17,0.05c0.02,0.03,0.05,0.05,0.07,0.08c-0.01,0.23-0.03,0.46-0.04,0.7
		c0.02,0.69,0.03,1.37,0.05,2.06c0.18,2.21,0.42,4.42,0.51,6.63c0.04,1.06,0.44,1.33,1.43,1.32c5.35-0.04,10.71-0.02,16.06-0.03
		c0.27,0,0.54,0,0.81,0c0.16,0.02,0.31,0.03,0.47,0.05c0,0.49,0,0.98-0.01,1.47c-0.75,0.39-1.51,0.78-2.26,1.16
		c-4.77,2.42-9.53,4.86-14.33,7.24c-0.71,0.35-1,0.69-0.93,1.48c0.29,3.27,0.5,6.54,0.82,9.81c0.03,0.3,0.6,0.54,0.92,0.81
		c0.85-0.01,1.7-0.02,2.55-0.04c6.48-0.01,12.95-0.02,19.43-0.03c0.35,0.04,0.7,0.07,1.05,0.11c0,4.83,0.01,9.67-0.01,14.5
		c0,0.66-0.14,1.31-0.22,1.97c-0.59-0.09-1.17-0.17-1.76-0.26c-0.18-1.25-1.27-1.87-2.36-1.51c-0.44,0.14-1.04-0.03-1.51-0.2
		c-0.71-0.26-1.43-0.99-2.05-0.9c-1.51,0.22-2.67-0.75-4.05-0.85c-0.1-2.19-0.15-4.38-0.32-6.56c-0.04-0.47-0.45-0.92-0.69-1.38
		c-0.11,0.01-0.21,0.01-0.32,0.02c-0.57-0.02-1.13-0.04-1.7-0.05c-0.87-1.26-4.5-1.45-5.47-0.28c-0.05,0.06-0.04,0.16-0.05,0.24
		c-0.18,0.05-0.36,0.1-0.55,0.15c-0.41,0.03-0.87,0.2-1.22,0.07c-1.27-0.45-1.27,0.31-1.23,1.17c0.01,0.29-0.01,0.58,0.02,0.87
		c0.24,2.58,0.44,5.16,0.75,7.73c0.25,2.1,0.64,4.19,0.97,6.28c0.88,0.41,1.72,0.95,2.65,1.21c5.02,1.42,10.05,2.78,15.09,4.13
		c1.33,0.36,2.7,0.59,4.05,0.87l-0.02,0.09c0.01,3.25,0.01,6.49,0.01,9.74c0,0.77,0.12,1.59,1.12,1.35c3.01-0.72,6-1.53,8.98-2.34
		c1.99-0.54,3.97-1.14,5.96-1.71c3.14-0.9,6.28-1.81,9.41-2.71c2.35-0.67,2.46-0.79,2.52-3.28c0.04-1.58,0.01-3.16,0.02-4.74
		c0-0.37,0.01-0.75,0.05-1.12c0.48-4.47,1-8.94,1.44-13.42c0.32-3.25,0.5-6.51,0.78-9.77c0.13-1.52,0.32-3.04,0.49-4.56
		c0.08-0.52,0.21-1.04,0.24-1.57c0.07-1.15,0.05-2.31,0.15-3.46c0.26-2.91,0.56-5.81,0.84-8.72c0.02-1.17-0.03-2.34,0.07-3.5
		c0.28-3.42,0.62-6.84,0.94-10.25c0.04-0.45,0.11-0.9,0.16-1.35c0.28-2.46,0.57-4.93,0.85-7.4c0.36,0.08,0.73,0.14,1.08,0.24
		c2.61,0.81,5.03-0.41,5.85-2.96c0.06-0.18,0.02-0.41,0-0.61c-0.06-0.65-0.19-1.31-0.17-1.96c0.03-1.06-0.12-1.94-1.15-2.53
		C354.23,53.97,354.03,53.43,353.75,53.04z"/>
	<path class="st5" d="M353.75,53.04c0.28,0.39,0.48,0.93,0.86,1.15c1.04,0.6,1.19,1.48,1.15,2.53c-0.02,0.65,0.12,1.31,0.17,1.96
		c0.02,0.2,0.05,0.42,0,0.61c-0.81,2.55-3.23,3.77-5.85,2.96c-0.35-0.11-0.72-0.16-1.08-0.24c-0.02-1.75-0.02-1.75-1.75-1.75
		c-10.17,0-20.33,0-30.5,0c-1.72,0-1.74,0.04-1.78,1.75c-8.71,1.6-17.5,0.38-26.25,0.74c-3.82,0.16-7.64,0.21-11.47,0.25
		c-2.16,0.02-3.33-1.37-3.08-3.47c0.03-0.29-0.05-0.75-0.24-0.9c-1.57-1.14-0.45-2.69-0.6-4.03c-0.03-0.23,0.85-0.55,1.31-0.84
		c0.37-0.23,0.73-0.48,1.09-0.72c1.66-0.01,3.33-0.03,4.99-0.03c23.88,0,47.76,0,71.64,0C352.84,53,353.29,53.03,353.75,53.04z"/>
	<path d="M88.79,42.5c0,0.45-0.14,0.97,0.02,1.35c0.49,1.17-0.14,1.37-1.06,1.39c-1,0.02-2-0.03-3,0.03
		c-0.78,0.04-1.02-0.27-1.01-1.02c0.03-2.15,0.01-4.29,0.01-6.44c-0.12-0.05-0.24-0.1-0.36-0.15c-1.18,1.82-2.35,3.64-3.51,5.42
		c-1.19-1.87-2.38-3.73-3.56-5.58c-0.1,0.05-0.2,0.1-0.3,0.15c0,2.4,0,4.79,0,7.27c-1.67,0-3.27,0-4.95,0c0-5.06,0-10.16,0-15.15
		c1.64,0,3.3-0.03,4.95,0.03c0.25,0.01,0.54,0.45,0.72,0.74c0.87,1.45,1.72,2.9,2.53,4.38c0.45,0.81,0.79,0.83,1.25,0.01
		c0.83-1.5,1.67-2.99,2.6-4.43c0.23-0.36,0.79-0.69,1.21-0.71c1.54-0.08,3.08-0.03,4.62-0.02C88.91,34.01,88.85,38.25,88.79,42.5z"
		/>
	<path d="M192.26,29.58c4.56-0.02,9.13-0.06,13.69-0.01c0.36,0,0.94,0.63,1.01,1.03c0.15,0.93,0.04,1.9,0.03,2.85
		c-3.09-0.01-6.19,0-9.28-0.05c-1.72-0.03-2.05,0.41-1.48,2.11c0.09,0.03,0.19,0.06,0.28,0.09c2.67,0.04,5.35,0.07,8.02,0.12
		c0.82,0.01,1.63,0.07,2.44,0.11c0,3.03,0,6.06,0,9.2c-4.98,0-9.91,0-14.9,0c0-1.26,0-2.48,0-3.87c2.37,0,4.69,0,7.01,0
		c0.79,0,1.58-0.02,2.37-0.05c1.64-0.06,1.69-0.16,1.14-1.86c-3.47,0-6.96,0-10.53,0c0-3.2,0-6.34,0-9.49
		C192.12,29.7,192.19,29.64,192.26,29.58z"/>
	<path d="M321.99,36.03c0,2.95,0,5.9,0,8.97c-4.99,0-9.92,0-14.91,0c0-1.22,0-2.45,0-3.84c3.56,0,7.04,0,10.6,0
		c0-0.73,0-1.29,0-1.93c-3.52,0-7.03,0-10.61,0c0-3.24,0-6.42,0-9.7c2.22,0,4.41,0,6.6,0c2.33,0,4.67,0.02,7-0.02
		c0.96-0.02,1.37,0.36,1.34,1.31c-0.03,0.87-0.02,1.75-0.03,2.62c-3.62,0-7.24,0-11.07,0c0.13,0.85,0.22,1.47,0.31,2.08
		c0.1,0.04,0.2,0.08,0.29,0.12c2.69,0.02,5.39,0.02,8.08,0.08C320.39,35.74,321.19,35.92,321.99,36.03z"/>
	<path d="M339.19,35.91c0,3.08,0,6.16,0,9.26c-5.11,0-9.95,0-14.93,0c0-1.07,0-2.18,0-3.29c0-0.72,0.3-0.8,1.02-0.79
		c3.2,0.08,6.39,0.03,9.66,0.03c0-0.66,0-1.19,0-1.91c-3.49,0-7.04,0-10.56,0c0-3.34,0-6.48,0-9.66c4.95,0,9.8,0,14.64,0
		c0,1.29,0,2.5,0,3.71c-0.43,0.07-0.87,0.2-1.3,0.2c-2.53,0-5.07-0.04-7.6-0.05c-1.93-0.01-2.04,0.11-1.79,2.06
		c0.07,0.06,0.13,0.12,0.2,0.18c1.95,0.02,3.9,0.02,5.85,0.06C335.97,35.76,337.58,35.85,339.19,35.91z"/>
	<path d="M35.72,29.52c1.66,0,3.14,0,4.74,0c0,1.81,0,3.57,0,5.41c1.96,0,3.81,0,5.78,0c0-1.4,0.06-2.8-0.02-4.2
		c-0.06-1.04,0.36-1.34,1.31-1.23c0.93,0.11,1.87,0.23,2.81,0.23c0.71,0.01,0.95,0.27,0.95,0.96c-0.01,4.54,0.01,9.08-0.03,13.62
		c0,0.32-0.43,0.88-0.69,0.9c-1.4,0.09-2.8,0.04-4.3,0.04c0-1.72,0-3.28,0-4.92c-1.94,0-3.79,0-5.74,0c0,1.6,0,3.2,0,4.92
		c-1.51,0-2.92,0.06-4.31-0.05c-0.27-0.02-0.68-0.74-0.68-1.13c0.02-3.77,0.12-7.55,0.19-11.32C35.74,31.71,35.72,30.68,35.72,29.52
		z"/>
	<path d="M289.9,29.53c4.85,0,9.63,0,14.51,0c0,1.27,0,2.54,0,3.89c-3.39,0-6.82,0-10.34,0c0,2.59,0,5.14,0,7.76c3.5,0,7,0,10.47,0
		c0,1.35,0,2.64,0,3.98c-4.95,0-9.74,0-14.65,0C289.9,40,289.9,34.83,289.9,29.53z"/>
	<path d="M68.5,34.48c-1.76,0-3.37,0-5.04,0c0,3.22-0.05,6.36,0.03,9.49c0.02,0.98-0.18,1.38-1.21,1.29c-0.87-0.08-1.75-0.07-2.62,0
		c-0.92,0.08-1.12-0.31-1.1-1.16c0.04-3.15,0.02-6.31,0.02-9.61c-1.27,0-2.5-0.04-3.73,0.01c-0.79,0.03-1.15-0.19-1.1-1.05
		c0.06-1.04-0.05-2.09,0.06-3.11c0.03-0.31,0.55-0.82,0.84-0.83c4.32-0.05,8.65-0.04,12.97,0.02c0.3,0,0.83,0.51,0.85,0.81
		C68.55,31.67,68.5,33,68.5,34.48z"/>
	<path d="M97.03,40.15c2.19,0,4.38,0,6.76,0c-0.12,1.69-0.23,3.34-0.34,5.02c-4.11,0-8.2,0-12.37,0C91.04,44.79,91,44.39,90.96,44
		c0-4.58,0-9.16,0-13.75c0.22-0.25,0.42-0.7,0.65-0.71c1.19-0.07,2.4,0,3.6-0.03C96.02,29.49,96,30,96,30.57
		c-0.01,2.85,0.01,5.71-0.01,8.56c0,0.55,0.05,0.98,0.72,1C96.82,40.14,96.92,40.14,97.03,40.15z"/>
	<path d="M179.03,41.18c2.2,0,4.39,0,6.66,0c0-3.96,0-7.74,0-11.7c1.14,0,2.2,0,3.26,0c0.85,0,0.72,0.63,0.72,1.16
		c0.01,3.87,0.02,7.74,0.03,11.62c0,0.87,0,1.74,0,2.89c-0.8,0-1.55,0-2.3,0c-2.5,0.01-5-0.03-7.49,0.04
		c-1.02,0.03-1.5-0.28-1.41-1.32c0.08-0.88,0.16-1.75,0.25-2.63C178.84,41.23,178.93,41.2,179.03,41.18z"/>
	<path class="st0" d="M90.96,30.25c0,4.58,0,9.16,0,13.75c-0.72-0.5-1.45-1-2.17-1.5c0.06-4.25,0.12-8.49,0.18-12.74
		C89.63,29.92,90.29,30.09,90.96,30.25z"/>
	<path class="st6" d="M311.21,35.52c-0.09-0.62-0.19-1.24-0.31-2.08c3.83,0,7.45,0,11.07,0c0,0.86,0.01,1.73,0.01,2.59
		c-0.8-0.11-1.6-0.29-2.4-0.31c-2.69-0.06-5.39-0.06-8.08-0.08C311.41,35.6,311.31,35.56,311.21,35.52z"/>
	<path class="st6" d="M206.97,35.83c-0.81-0.04-1.63-0.09-2.44-0.11c-2.67-0.05-5.35-0.08-8.02-0.12c-0.09-0.03-0.19-0.06-0.28-0.09
		c-0.58-1.71-0.24-2.14,1.48-2.11c3.09,0.05,6.19,0.04,9.28,0.05C206.98,34.24,206.97,35.03,206.97,35.83z"/>
	<path class="st6" d="M339.19,35.91c-1.61-0.06-3.22-0.15-4.82-0.18c-1.95-0.04-3.9-0.04-5.85-0.06c-0.07-0.06-0.13-0.12-0.2-0.18
		c-0.25-1.95-0.15-2.07,1.79-2.06c2.53,0.02,5.07,0.05,7.6,0.05c0.43,0,0.87-0.13,1.3-0.2C339.07,34.15,339.13,35.03,339.19,35.91z"
		/>
	<path class="st7" d="M31.25,53.03c-0.42,0.62-0.75,1.36-1.3,1.83c-0.6,0.52-0.97,0.97-1.03,1.81c-0.03,0.45,0.12,1.37-0.88,1.32
		c-0.13-1.63-0.25-3.25-0.39-4.97C28.96,53.03,30.11,53.03,31.25,53.03z"/>
	<path class="st8" d="M151.5,52.94c-0.49,0.03-0.99,0.06-1.48,0.1C150.51,53,151,52.97,151.5,52.94z"/>
	<path class="st9" d="M82.77,52.91c-0.1,0-0.2,0-0.3,0C82.57,52.91,82.67,52.91,82.77,52.91z"/>
	<path class="st9" d="M81.77,52.91c-0.1,0-0.2,0-0.3,0C81.57,52.91,81.67,52.91,81.77,52.91z"/>
	<path class="st10" d="M192.26,29.58c-0.07,0.06-0.14,0.12-0.2,0.18C192.12,29.7,192.19,29.64,192.26,29.58z"/>
	<path class="st8" d="M234.24,52.89c-0.08,0.01-0.16,0.02-0.24,0.03C234.08,52.91,234.16,52.9,234.24,52.89z"/>
	<path class="st9" d="M105.77,52.92c-0.1,0-0.2,0-0.3,0C105.57,52.92,105.67,52.92,105.77,52.92z"/>
	<path class="st9" d="M104.77,52.91c-0.1,0-0.2,0-0.3,0C104.57,52.91,104.67,52.91,104.77,52.91z"/>
	<path class="st9" d="M103.77,52.91c-0.1,0-0.2,0-0.3,0C103.57,52.91,103.67,52.91,103.77,52.91z"/>
	<path class="st9" d="M102.77,52.91c-0.1,0-0.2,0-0.3,0C102.57,52.91,102.67,52.91,102.77,52.91z"/>
	<path class="st9" d="M101.77,52.91c-0.1,0-0.2,0-0.3,0C101.57,52.91,101.67,52.91,101.77,52.91z"/>
	<path class="st9" d="M100.77,52.91c-0.1,0-0.2,0-0.3,0C100.57,52.91,100.67,52.91,100.77,52.91z"/>
	<path class="st9" d="M99.77,52.91c-0.1,0-0.2,0-0.3,0C99.57,52.91,99.67,52.91,99.77,52.91z"/>
	<path class="st9" d="M98.77,52.91c-0.1,0-0.2,0-0.3,0C98.57,52.91,98.67,52.91,98.77,52.91z"/>
	<path class="st9" d="M97.77,52.91c-0.1,0-0.2,0-0.3,0C97.57,52.91,97.67,52.91,97.77,52.91z"/>
	<path class="st9" d="M96.77,52.91c-0.1,0-0.2,0-0.3,0C96.57,52.91,96.67,52.91,96.77,52.91z"/>
	<path class="st9" d="M95.77,52.91c-0.1,0-0.2,0-0.3,0C95.57,52.91,95.67,52.91,95.77,52.91z"/>
	<path class="st9" d="M94.77,52.91c-0.1,0-0.2,0-0.3,0C94.57,52.91,94.67,52.91,94.77,52.91z"/>
	<path class="st9" d="M93.77,52.91c-0.1,0-0.2,0-0.3,0C93.57,52.91,93.67,52.91,93.77,52.91z"/>
	<path class="st9" d="M92.77,52.91c-0.1,0-0.2,0-0.3,0C92.57,52.91,92.67,52.91,92.77,52.91z"/>
	<path class="st9" d="M91.77,52.9c-0.1,0-0.2,0-0.3,0C91.57,52.91,91.67,52.91,91.77,52.9z"/>
	<path class="st9" d="M90.77,52.9c-0.1,0-0.2,0-0.3,0C90.57,52.91,90.67,52.91,90.77,52.9z"/>
	<path class="st9" d="M89.77,52.9c-0.1,0-0.2,0-0.3,0C89.57,52.91,89.67,52.91,89.77,52.9z"/>
	<path class="st9" d="M88.77,52.91c-0.1,0-0.2,0-0.3,0C88.57,52.91,88.67,52.91,88.77,52.91z"/>
	<path class="st9" d="M87.77,52.91c-0.1,0-0.2,0-0.3,0C87.57,52.91,87.67,52.91,87.77,52.91z"/>
	<path class="st9" d="M80.77,52.91c-0.1,0-0.2,0-0.3,0C80.57,52.91,80.67,52.91,80.77,52.91z"/>
	<path class="st9" d="M79.77,52.91c-0.1,0-0.2,0-0.3,0C79.57,52.91,79.67,52.91,79.77,52.91z"/>
	<path class="st9" d="M78.77,52.91c-0.1,0-0.2,0-0.3,0C78.57,52.91,78.67,52.91,78.77,52.91z"/>
	<path class="st9" d="M77.77,52.91c-0.1,0-0.2,0-0.3,0C77.57,52.91,77.67,52.91,77.77,52.91z"/>
	<path class="st9" d="M76.77,52.91c-0.1,0-0.2,0-0.3,0C76.57,52.91,76.67,52.91,76.77,52.91z"/>
	<path class="st9" d="M75.77,52.91c-0.1,0-0.2,0-0.3,0C75.57,52.91,75.67,52.91,75.77,52.91z"/>
	<path class="st9" d="M74.77,52.91c-0.1,0-0.2,0-0.3,0C74.57,52.91,74.67,52.91,74.77,52.91z"/>
	<path class="st9" d="M73.77,52.91c-0.1,0-0.2,0-0.3,0C73.57,52.91,73.67,52.91,73.77,52.91z"/>
	<path class="st9" d="M72.77,52.91c-0.1,0-0.2,0-0.3,0C72.57,52.91,72.67,52.91,72.77,52.91z"/>
	<path class="st9" d="M71.77,52.91c-0.1,0-0.2,0-0.3,0C71.57,52.91,71.67,52.91,71.77,52.91z"/>
	<path class="st9" d="M70.77,52.91c-0.1,0-0.2,0-0.3,0C70.57,52.91,70.67,52.91,70.77,52.91z"/>
	<path class="st9" d="M69.77,52.91c-0.1,0-0.2,0-0.3,0C69.57,52.91,69.67,52.91,69.77,52.91z"/>
	<path class="st9" d="M64.77,52.91c-0.1,0-0.2,0-0.3,0C64.57,52.91,64.67,52.91,64.77,52.91z"/>
	<path class="st9" d="M63.77,52.91c-0.1,0-0.2,0-0.3,0C63.57,52.91,63.67,52.91,63.77,52.91z"/>
	<path class="st9" d="M54.77,52.91c-0.1,0-0.2,0-0.3,0C54.57,52.91,54.67,52.91,54.77,52.91z"/>
	<path class="st9" d="M42.77,52.91c-0.1,0-0.2,0-0.3,0C42.57,52.91,42.67,52.91,42.77,52.91z"/>
	<path class="st9" d="M41.77,52.91c-0.1,0-0.2,0-0.3,0C41.57,52.91,41.67,52.91,41.77,52.91z"/>
	<path class="st9" d="M37.77,52.91c-0.1,0-0.2,0-0.3,0C37.57,52.91,37.67,52.91,37.77,52.91z"/>
	<path class="st11" d="M179.03,41.18c-0.09,0.02-0.19,0.04-0.28,0.06C178.84,41.23,178.93,41.2,179.03,41.18z"/>
	<path class="st12" d="M97.03,40.15c-0.11-0.01-0.21-0.01-0.32-0.02C96.82,40.14,96.92,40.14,97.03,40.15z"/>
	<path class="st9" d="M84.77,52.91c-0.1,0-0.2,0-0.3,0C84.57,52.91,84.67,52.91,84.77,52.91z"/>
	<path class="st13" d="M192.5,101c0-12.95,0-25.91,0-38.86c0-1.74,0.14-1.88,1.82-1.88c10.12,0,20.24,0,30.36,0
		c1.83,0,1.95,0.12,1.81,1.92c-0.33,4.25-0.62,8.5-1.02,12.74c-0.43,4.52-1,9.03-1.45,13.56c-0.18,1.77-0.14,3.56-0.28,5.34
		c-0.29,3.54-0.66,7.08-0.97,10.62c-0.28,3.21-0.48,6.44-0.78,9.65c-0.26,2.8-0.63,5.58-0.93,8.38c-0.06,0.58-0.01,1.17-0.07,1.74
		c-0.31,3.12-0.6,6.25-1.01,9.36c-0.06,0.49-0.62,1.15-1.09,1.3c-2.83,0.93-5.7,1.75-8.56,2.57c-2.9,0.83-5.81,1.64-8.73,2.4
		c-2.56,0.66-5.15,1.22-7.72,1.85c-0.85,0.21-1.28-0.11-1.36-0.95c-0.03-0.33-0.01-0.67-0.01-1C192.5,126.82,192.5,113.91,192.5,101
		z M205,81.75c0-0.48,0-0.95,0-1.58c2.28,0,4.39,0,6.5,0c0.08,0,0.16-0.01,0.24-0.01c3,0.02,6.01,0.05,9.01,0.07
		c0.82,0.34,0.94,0.28,0.98-0.45c0.25-2.37,0.45-4.75,0.76-7.11c0.21-1.61,0.06-1.91-1.46-1.91c-7.87-0.03-15.74-0.05-23.62-0.07
		c-0.53,0-1.05,0.08-1.67,0.13c0,0.72,0,1.34,0,1.96c0,10.54,0,21.08,0,31.62c0,0.67,0.04,1.33,0.02,2
		c-0.03,0.98,0.47,1.23,1.35,1.05c1.28-0.25,2.56-0.48,3.85-0.71c1.17-0.21,2.33-0.43,3.5-0.61c2.05-0.32,4.11-0.62,6.28-0.95
		c0,0.79,0.06,1.41-0.01,2.02c-0.21,1.87-0.49,3.73-0.71,5.6c-0.13,1.1-0.14,2.22-0.29,3.32c-0.1,0.71-0.31,1.36-1.27,1.41
		c-0.73,0.04-1.46,0.24-2.17,0.44c-3.07,0.85-6.12,1.77-9.21,2.57c-0.97,0.25-1.38,0.6-1.35,1.65c0.07,2.54,0.01,5.08,0.02,7.62
		c0,0.39,0.07,0.77,0.13,1.29c1.3-0.38,2.44-0.74,3.58-1.05c5.49-1.52,10.99-3.02,16.49-4.53c0.93-0.26,1.93-0.49,2.04-1.66
		c0.29-3.12,0.53-6.24,0.78-9.37c0.12-1.48,0.2-2.96,0.34-4.44c0.21-2.17,0.46-4.33,0.68-6.5c0.15-1.43,0.29-2.86,0.42-4.29
		c0.14-1.71,0.26-3.42,0.39-5.06c-5.28,0.8-10.36,1.58-15.44,2.35c0-4.5,0-8.77,0-13.05c0-0.08,0-0.16,0-0.25
		c0-0.17,0-0.34-0.01-0.52C205.09,82.41,205.05,82.08,205,81.75z"/>
	<path class="st14" d="M164.37,114.14c2.47,0.7,4.94,1.42,7.41,2.1c1.98,0.55,3.98,1.02,5.96,1.6c0.65,0.19,1.24,0.61,2.12,1.05
		c0-16.22,0-32.24,0-48.14c2.79,0,5.34,0.07,7.89-0.03c1.26-0.05,1.52,0.43,1.52,1.57c-0.03,13.45-0.03,26.9-0.02,40.34
		c0,5.62,0.01,11.24,0.02,16.86c0,1.37-0.18,1.52-1.55,1.13c-3.03-0.88-6.04-1.84-9.09-2.66c-4.48-1.21-9-2.31-13.48-3.53
		c-0.54-0.15-0.97-0.72-1.45-1.09c-0.04-0.28-0.09-0.56-0.13-0.85c-0.01-2.5-0.01-5-0.02-7.5
		C163.82,114.71,164.09,114.43,164.37,114.14z"/>
	<path class="st8" d="M164.37,114.14c-0.27,0.28-0.55,0.57-0.82,0.85c0-0.36,0-0.71,0-1.22
		C163.9,113.93,164.13,114.04,164.37,114.14z"/>
	<path class="st8" d="M163.56,122.5c0.04,0.28,0.09,0.56,0.13,0.85C163.65,123.07,163.6,122.78,163.56,122.5z"/>
	<path class="st14" d="M47,103.46c-0.83-0.01-0.94-0.52-0.98-1.22c-0.23-3.36-0.51-6.71-0.79-10.06c-0.02-0.23-0.17-0.45-0.26-0.67
		c0-1.09-0.01-2.17-0.01-3.26c-0.31-3.62-0.62-7.25-0.95-10.87c-0.2-2.15-0.43-4.3-0.66-6.51c0.51-0.07,0.83-0.12,1.14-0.16
		c0.17-0.02,0.35-0.03,0.52-0.05c4.25,0.02,8.49,0.05,12.74,0.05c3.91,0,7.83-0.03,11.74-0.05c0.18,0,0.36,0.01,0.54,0.01
		c7.41,0.01,14.81,0.03,22.22,0.04c0.08,0,0.17,0,0.25,0c1.31,0,2.62,0,4.11,0c-0.22,3.52-0.42,6.84-0.63,10.15
		c-0.01,0.14-0.14,0.28-0.22,0.41c-0.26,0.05-0.52,0.11-0.77,0.16c-0.15-0.03-0.31-0.06-0.46-0.09c-0.18,0-0.36-0.01-0.54-0.01
		c-2.37,0.03-4.75,0.07-7.12,0.08c-5.46,0.03-10.91,0.05-16.37,0.07c-0.17,0-0.33,0-0.5,0c-0.5-0.04-0.99-0.11-1.49-0.11
		c-3.41-0.01-6.83-0.01-10.24-0.02c-0.1,0-0.19,0-0.29,0.01c-0.39,0-0.77,0-1.16,0c-0.27,0.06-0.53,0.12-0.8,0.18
		c0,0.74,0.01,1.48,0.01,2.21c0.16,2.71,0.3,5.42,0.49,8.13c0.05,0.67,0.49,1.01,1.21,0.85c1.76-0.09,3.51-0.18,5.27-0.27
		c2.33,0.01,4.66,0.01,7,0.02c8.23,0,16.46,0,24.82,0c-0.2,2.74-0.37,5.28-0.58,7.82c-0.31,3.72-0.66,7.44-0.99,11.16
		c-0.09,1.07-0.18,2.13-0.28,3.2c-0.23,2.45-0.56,4.9-0.68,7.35c-0.12,2.37-0.61,3.06-3.04,3.51c-0.69-0.88-1.52-0.52-2.35-0.28
		c-0.98,0.28-1.97,0.51-2.95,0.77c-0.85,0.22-1.89,0.22-1.95,1.48c-2.31,0.67-4.62,1.31-6.92,2.02c-1.46,0.45-2.89,1.01-4.34,1.52
		c-1.56-0.37-3.11-0.74-4.67-1.09c-0.43-0.1-0.87-0.14-1.3-0.2c-0.18-0.08-0.35-0.16-0.53-0.23c-0.25-0.07-0.5-0.15-0.75-0.22
		c-0.41-0.16-0.8-0.38-1.22-0.49c-3.01-0.77-6.02-1.51-9.03-2.26c-1.49-0.52-2.99-0.99-4.45-1.58c-0.34-0.13-0.69-0.6-0.76-0.96
		c-0.24-1.37-0.41-2.76-0.53-4.15c-0.28-3.36-0.51-6.73-0.75-10.1c-0.03-0.49,0-0.98,0-1.39c3.69,0,7.26,0,10.98,0
		c0.08,0.88,0.19,1.81,0.25,2.73c0.1,1.56,0.08,3.14,0.31,4.69c0.08,0.53,0.67,1.25,1.18,1.41c2.83,0.88,5.69,1.61,8.55,2.38
		c0.65,0.17,1.31,0.28,1.97,0.42c3.75-1.08,7.5-2.19,11.27-3.21c0.86-0.23,0.7-0.79,0.73-1.34c0.17-3.76,0.34-7.52,0.5-11.27
		c0.01-0.3-0.01-0.6-0.02-0.9c-0.59-0.77-1.17-0.19-1.75,0.02c-1-0.03-2-0.06-2.99-0.09c-0.58,0-1.16,0-1.74-0.01
		c-2.16,0.04-4.33,0.07-6.49,0.11c-0.5-0.03-1.01-0.06-1.51-0.1c-0.08,0-0.17,0-0.25,0c-5.67,0-11.34,0-17-0.01
		c-0.08,0-0.16,0-0.24,0c-0.75,0-1.51,0.01-2.26,0.01C47.83,103.29,47.41,103.38,47,103.46z"/>
	<path class="st15" d="M89.25,125.52c2.43-0.45,2.92-1.14,3.04-3.51c0.12-2.46,0.45-4.9,0.68-7.35c0.1-1.07,0.19-2.13,0.28-3.2
		c0.33-3.72,0.68-7.44,0.99-11.16c0.21-2.54,0.38-5.08,0.58-7.82c-8.36,0-16.59,0-24.82,0c0.21-3.66-0.49-7.37,0.5-11
		c5.46-0.02,10.91-0.04,16.37-0.07c2.37-0.01,4.75-0.05,7.12-0.08c0.18,0,0.36,0.01,0.54,0.01c0.15,0.03,0.31,0.06,0.46,0.09
		c0.26-0.05,0.52-0.11,0.77-0.16c0.08-0.14,0.21-0.27,0.22-0.41c0.22-3.31,0.42-6.63,0.63-10.15c-1.49,0-2.8,0-4.11,0
		c-0.08,0-0.17,0-0.25,0c-7.41-0.01-14.81-0.03-22.22-0.04c0.01-0.07,0-0.14-0.02-0.2c0-2.87,0.03-5.75-0.02-8.62
		c-0.02-1.2,0.47-1.61,1.64-1.6c10.25,0.03,20.49,0.01,30.74,0.02c1.43,0,1.73,0.23,1.62,1.69c-0.26,3.37-0.62,6.74-0.95,10.11
		c-0.01,0.12-0.02,0.25-0.03,0.37c-0.17,2.94-0.25,5.88-0.52,8.8c-0.42,4.48-0.97,8.95-1.46,13.42c-0.02,0.21-0.01,0.42-0.02,0.62
		c-0.32,3.79-0.66,7.58-0.97,11.36c-0.19,2.35-0.33,4.71-0.53,7.05c-0.3,3.46-0.67,6.91-0.95,10.37c-0.22,2.72-0.4,5.45-0.53,8.18
		c-0.08,1.69-0.89,2.6-2.53,3.03c-3.4,0.88-6.77,1.9-10.16,2.81c-2.04,0.55-4.11,0.96-6.15,1.5c-2.48,0.65-4.93,1.39-7.41,2.04
		c-1.31,0.35-1.75-0.03-1.76-1.41c-0.01-2.37-0.06-4.75,0.03-7.12c0.03-0.69,0.46-1.36,0.71-2.04c1.44-0.51,2.87-1.07,4.34-1.52
		c2.29-0.71,4.61-1.35,6.92-2.02C84.42,126.83,86.83,126.18,89.25,125.52z"/>
	<path class="st15" d="M69.51,103.3c2.16-0.04,4.33-0.07,6.49-0.11c0.58,0,1.16,0,1.74,0.01c1,0.03,2,0.06,2.99,0.09
		c0.58-0.01,1.16-0.01,1.75-0.02c0.01,0.3,0.03,0.6,0.02,0.9c-0.16,3.76-0.33,7.52-0.5,11.27c-0.03,0.55,0.13,1.1-0.73,1.34
		c-3.77,1.02-7.51,2.13-11.27,3.21c0-5.09,0.01-10.18-0.03-15.27C69.97,104.25,69.67,103.77,69.51,103.3z"/>
	<path class="st7" d="M53.25,126.54c3.01,0.75,6.02,1.49,9.03,2.26c0.42,0.11,0.82,0.32,1.22,0.49c-0.5,0.81-1.49,0.93-2.4,0.46
		c-0.67-0.35-1.44-0.52-2.17-0.74c-0.43-0.13-0.89-0.16-1.33-0.28c-0.84-0.23-1.73-0.38-2.51-0.76
		C54.41,127.63,53.86,127.02,53.25,126.54z"/>
	<path class="st7" d="M44.95,88.24c0,1.09,0.01,2.17,0.01,3.26c-0.8-0.41-1.41-2.59-0.86-3.26C44.22,88.1,44.66,88.23,44.95,88.24z"
		/>
	<path class="st8" d="M47,103.46c0.42-0.08,0.83-0.17,1.25-0.25C47.83,103.29,47.41,103.38,47,103.46z"/>
	<path class="st16" d="M45.01,70.65c-0.17,0.02-0.35,0.03-0.52,0.05C44.66,70.68,44.84,70.67,45.01,70.65z"/>
	<path class="st16" d="M70,70.46c0.02,0.07,0.03,0.13,0.02,0.2c-0.18,0-0.36-0.01-0.54-0.01C69.66,70.59,69.83,70.52,70,70.46z"/>
	<path class="st7" d="M64.25,129.51c0.18,0.08,0.35,0.16,0.53,0.23C64.6,129.66,64.42,129.58,64.25,129.51z"/>
	<path class="st8" d="M50.5,103.2c0.08,0,0.16,0,0.24,0C50.66,103.19,50.58,103.2,50.5,103.2z"/>
	<path class="st8" d="M67.75,103.2c0.08,0,0.17,0,0.25,0C67.91,103.2,67.83,103.2,67.75,103.2z"/>
	<path class="st14" d="M313.01,119.71c0.59,0.09,1.17,0.17,1.76,0.26c0.74-0.15,1.49-0.31,2.23-0.46c2-0.57,4.01-1.15,6.01-1.72
		c0.27-0.07,0.53-0.14,0.8-0.22c0.11-0.03,0.22-0.05,0.34-0.08c0.52-0.16,1.07-0.26,1.54-0.51c0.4-0.22,0.99-0.59,1.02-0.94
		c0.31-4.26,0.53-8.52,0.78-12.79c0.27-0.47-0.03-0.96-0.61-0.91c-1.09,0.1-2.19,0.23-3.27,0.4c-0.38,0.06-0.74,0.3-1.11,0.46
		c-0.16,0-0.33,0-0.49,0c-0.09-0.12-0.17-0.24-0.26-0.36c-0.09,0.12-0.17,0.24-0.26,0.36c-0.04,0.04-0.06,0.09-0.07,0.15
		c-0.12,0-0.23,0-0.35,0.01c-0.01-0.06-0.03-0.11-0.07-0.15c-0.15-0.14-0.3-0.28-0.44-0.43c-0.11,0.14-0.22,0.29-0.32,0.43
		c-0.26,0.05-0.52,0.11-0.78,0.16c-0.14,0-0.28,0.01-0.42,0.01c-0.85-0.03-1.7-0.06-2.56-0.09c-0.41,0-0.81-0.01-1.22-0.01
		c-0.42-0.03-0.84-0.06-1.27-0.09c-0.3-0.23-0.6-0.66-0.89-0.66c-6.68-0.04-13.37-0.04-20.05,0c-0.35,0-0.69,0.48-1.04,0.73
		c-0.02,0.06-0.03,0.13-0.05,0.19c-0.32-0.27-0.89-0.51-0.92-0.81c-0.32-3.26-0.53-6.54-0.82-9.81c-0.07-0.79,0.22-1.13,0.93-1.48
		c4.8-2.37,9.56-4.81,14.33-7.24c0.76-0.38,1.51-0.77,2.26-1.16c0.73-0.33,1.47-0.66,2.35-1.06c-0.2-0.14-0.39-0.28-0.58-0.41
		c-0.1-0.01-0.19-0.02-0.29-0.04c-0.14-0.01-0.28-0.03-0.42-0.04c-0.2-0.01-0.41-0.01-0.61-0.02c-0.15,0.03-0.3,0.07-0.45,0.1
		c-0.16-0.02-0.31-0.03-0.47-0.05c-0.27,0-0.54,0-0.81,0c-5.35,0-10.71-0.01-16.06,0.03c-0.99,0.01-1.39-0.27-1.43-1.32
		c-0.09-2.21-0.33-4.42-0.51-6.63c-0.02-0.69-0.03-1.37-0.05-2.06c0.01-0.23,0.03-0.46,0.04-0.7c0.08-0.01,0.11-0.05,0.1-0.13
		c0.46,0,0.93-0.01,1.39-0.01c0.49,0.05,0.98,0.14,1.47,0.14c4.62,0.01,9.25,0.02,13.87,0c1.58,0,3.16-0.06,4.74-0.09
		c1.31,0,2.61-0.01,3.92-0.01c0.36,0.01,0.72,0.03,1.08,0.04c0.56-0.01,1.12-0.01,1.68-0.02c0.67,0.04,1.35,0.08,2.02,0.13
		c0.38,0.15,0.76,0.41,1.15,0.42c2.79,0.04,5.57-0.01,8.36,0.03c2.06,0.03,4.12,0.22,6.18,0.22c1.86,0,3.72-0.2,5.58-0.19
		c0.47,0,0.95,0.46,1.42,0.71c0,0.17,0,0.34,0,0.51c-0.06,0.25-0.12,0.51-0.18,0.76c-0.09,1.67-0.13,3.34-0.27,5.01
		c-0.1,1.16-0.33,2.31-0.51,3.47c-0.43,0.19-0.87,0.37-1.29,0.58c-1.32,0.65-2.63,1.3-3.94,1.96c-0.51,0.24-1.03,0.48-1.54,0.73
		l-0.05,0.05c-0.15,0.13-0.29,0.26-0.44,0.39c-0.08,0.01-0.15,0.04-0.22,0.09c-4.37,1.75-8.54,3.88-12.75,6.42
		c0.55,0.35,0.82,0.67,1.08,0.67c3.39-0.03,6.77-0.1,10.16-0.17c2.63,0,5.27,0,8.11,0c-0.11,1.64-0.21,3.09-0.31,4.55
		c-0.18,2.39-0.37,4.78-0.56,7.17c-0.1,1.23-0.2,2.46-0.33,3.69c-0.21,2-0.47,4-0.64,6.01c-0.22,2.63-0.34,5.26-0.56,7.88
		c-0.07,0.84-0.33,1.67-0.5,2.5c-2.68,0.64-5.36,1.24-8.03,1.93c-3.5,0.91-7.01,1.83-10.47,2.88c-0.91,0.28-2.27,0.17-2.48,1.63
		c-0.25,0.04-0.5,0.09-0.75,0.13c0,0,0.02-0.09,0.02-0.09c-0.53-0.41-1-1.01-1.6-1.19c-2.62-0.82-5.27-1.54-7.92-2.27
		c-3.44-0.95-6.89-1.91-10.35-2.79c-0.59-0.15-1.27,0.02-1.91,0.05c-0.33-2.09-0.71-4.18-0.97-6.28c-0.31-2.57-0.51-5.15-0.75-7.73
		c-0.03-0.29,0-0.58-0.02-0.87c-0.04-0.86-0.04-1.62,1.23-1.17c0.35,0.13,0.81-0.04,1.22-0.07c0.44,0.03,0.88,0.05,1.32,0.08
		c0.24,0,0.47,0,0.71,0c0.1,0,0.2-0.01,0.29-0.01c1.15-0.02,2.29-0.04,3.44-0.06c0.11-0.01,0.22-0.03,0.32-0.04l-0.02-0.08
		c0.57,0.02,1.13,0.04,1.7,0.05c0.11-0.01,0.21-0.01,0.32-0.02c0.24,0.46,0.66,0.91,0.69,1.38c0.16,2.18,0.22,4.37,0.32,6.56
		c0.16,0.23,0.28,0.59,0.5,0.67c0.99,0.38,1.99,0.71,3.01,1c1.37,0.39,2.73,0.87,4.13,1.04
		C311.54,119.08,312.32,119.16,313.01,119.71z"/>
	<path class="st17" d="M314.98,130.81c0.25-0.04,0.5-0.09,0.75-0.13c1.38-0.37,2.77-0.71,4.14-1.11c2.07-0.59,4.12-1.24,6.19-1.81
		c3.29-0.91,6.6-1.76,9.89-2.69c0.31-0.09,0.51-0.54,0.75-0.83c0.17-0.83,0.43-1.66,0.5-2.5c0.22-2.62,0.34-5.26,0.56-7.88
		c0.17-2.01,0.43-4.01,0.64-6.01c0.13-1.23,0.23-2.46,0.33-3.69c0.19-2.39,0.37-4.78,0.56-7.17c0.18,0.08,0.45,0.12,0.53,0.26
		c0.72,1.22,1.84,1.62,3.16,1.48c0.93-0.1,1.85-0.32,2.77-0.49c-0.16,1.52-0.36,3.03-0.49,4.56c-0.27,3.25-0.46,6.52-0.78,9.77
		c-0.43,4.48-0.96,8.95-1.44,13.42c-0.04,0.37-0.04,0.75-0.05,1.12c-0.01,1.58,0.02,3.16-0.02,4.74c-0.06,2.49-0.17,2.61-2.52,3.28
		c-3.14,0.9-6.28,1.81-9.41,2.71c-1.98,0.57-3.96,1.17-5.96,1.71c-2.99,0.81-5.97,1.62-8.98,2.34c-1,0.24-1.12-0.58-1.12-1.35
		C315,137.3,314.99,134.06,314.98,130.81z"/>
	<path class="st18" d="M340.48,81.74c0.17-1.16,0.41-2.31,0.51-3.47c0.14-1.66,0.19-3.34,0.27-5.01c0.06-0.25,0.12-0.51,0.18-0.76
		c0-0.17,0-0.34,0-0.51c0.13-0.74,0.26-1.49-0.91-1.37c-0.24-0.04-0.49-0.11-0.73-0.11c-7.41,0-14.83,0-22.24,0.01
		c-0.28,0-0.56,0.11-0.84,0.16c-0.56,0.01-1.12,0.01-1.68,0.02c-0.01-0.07-0.03-0.13-0.04-0.2c0-2.84,0-5.67-0.01-8.51
		c0.03-1.71,0.06-1.75,1.78-1.75c10.17,0,20.33,0,30.5,0c1.72,0,1.72,0,1.75,1.75c-0.28,2.47-0.56,4.93-0.85,7.4
		c-0.05,0.45-0.12,0.9-0.16,1.35c-0.32,3.42-0.66,6.83-0.94,10.25c-0.1,1.16-0.05,2.33-0.07,3.5c-0.61-0.08-1.24-0.11-1.83-0.28
		c-0.33-0.09-0.86-0.47-0.83-0.64c0.29-1.57-0.95-1.37-1.78-1.57C341.88,81.85,341.17,81.83,340.48,81.74z"/>
	<path class="st17" d="M317,119.51c-0.74,0.15-1.49,0.31-2.23,0.46c0.08-0.66,0.22-1.31,0.22-1.97c0.02-4.83,0.01-9.67,0.01-14.5
		c0.09-0.07,0.17-0.14,0.26-0.21c0.41,0,0.81,0.01,1.22,0.01c0.85,0.03,1.7,0.06,2.56,0.09c0.14,0,0.28-0.01,0.42-0.01
		c0.54-0.01,1.08-0.01,1.62-0.02c0.12,0,0.23,0,0.35-0.01c0.37,0.01,0.75,0.01,1.12,0.02c1.23,0.01,2.46,0.02,3.69,0.04
		c0.11-0.02,0.22-0.05,0.33-0.07c0.31-0.03,0.62-0.07,0.92-0.1c-0.24,4.26-0.47,8.53-0.78,12.79c-0.02,0.34-0.61,0.72-1.02,0.94
		c-0.47,0.25-1.02,0.35-1.54,0.51c-0.11,0.03-0.22,0.05-0.34,0.08c-0.27,0.07-0.53,0.14-0.8,0.22c-0.94-1.01-1.76-0.32-2.65,0.13
		c-0.46,0.23-1.03,0.43-1.52,0.37C317.8,118.14,317.14,118.37,317,119.51z"/>
	<path class="st19" d="M340.48,81.74c0.69,0.09,1.4,0.11,2.07,0.27c0.83,0.2,2.07,0,1.78,1.57c-0.03,0.16,0.5,0.55,0.83,0.64
		c0.59,0.17,1.22,0.19,1.83,0.28c-0.28,2.91-0.59,5.81-0.84,8.72c-0.1,1.15-0.08,2.31-0.15,3.46c-0.03,0.53-0.16,1.05-0.24,1.57
		c-0.92,0.17-1.84,0.39-2.77,0.49c-1.32,0.14-2.43-0.26-3.16-1.48c-0.08-0.14-0.35-0.17-0.53-0.26c0.1-1.46,0.2-2.91,0.31-4.55
		c-2.84,0-5.47,0-8.11,0c-0.79-0.51-0.11-0.81,0.14-1.23c0.87-1.45,2.3-2.77,1.27-4.75c-0.12-0.23,0.06-0.62,0.1-0.94
		c0.07-0.05,0.14-0.08,0.22-0.09c0.13,0.05,0.25,0.1,0.38,0.15c0.02-0.18,0.04-0.36,0.06-0.54c0,0,0.05-0.05,0.05-0.05
		c0.59-0.08,1.39,0.28,1.54-0.73c1.31-0.65,2.62-1.31,3.94-1.96C339.61,82.11,340.05,81.93,340.48,81.74z"/>
	<path class="st20" d="M293.23,124.51c0.64-0.02,1.31-0.2,1.91-0.05c3.46,0.89,6.91,1.84,10.35,2.79c2.65,0.73,5.3,1.45,7.92,2.27
		c0.6,0.19,1.07,0.79,1.6,1.19c-1.35-0.29-2.72-0.52-4.05-0.87c-5.04-1.35-10.07-2.71-15.09-4.13
		C294.95,125.46,294.11,124.92,293.23,124.51z"/>
	<path class="st20" d="M292.01,103.27c0.35-0.25,0.69-0.73,1.04-0.73c6.68-0.04,13.37-0.04,20.05,0c0.3,0,0.6,0.43,0.89,0.66
		c-0.02,0.06-0.04,0.13-0.05,0.2c-6.48,0.01-12.95,0.02-19.43,0.03C293.68,103.37,292.85,103.32,292.01,103.27z"/>
	<path class="st21" d="M313.01,119.71c-0.69-0.55-1.47-0.63-2.34-0.74c-1.4-0.17-2.76-0.65-4.13-1.04c-1.02-0.29-2.02-0.62-3.01-1
		c-0.22-0.08-0.33-0.44-0.5-0.67c1.38,0.1,2.54,1.07,4.05,0.85c0.62-0.09,1.34,0.64,2.05,0.9c0.47,0.17,1.07,0.35,1.51,0.2
		C311.74,117.84,312.83,118.46,313.01,119.71z"/>
	<path class="st21" d="M299.71,108.4c-1.15,0.02-2.29,0.04-3.44,0.06c-0.1,0-0.2,0.01-0.29,0.01c-0.24,0-0.47,0-0.71,0
		c-0.26-0.08-0.52-0.15-0.78-0.23c0.02-0.08,0.01-0.18,0.05-0.24c0.97-1.17,4.6-0.99,5.47,0.28c0,0,0.02,0.08,0.02,0.08
		C299.93,108.37,299.82,108.39,299.71,108.4z"/>
	<path class="st22" d="M310.04,70.68c-1.58,0.03-3.16,0.09-4.74,0.09c-4.62,0.01-9.25,0.01-13.87,0c-0.49,0-0.98-0.09-1.47-0.14
		c0.08-0.03,0.15-0.09,0.23-0.09c6.5,0,13,0,19.51,0.01C309.81,70.55,309.93,70.63,310.04,70.68z"/>
	<path class="st21" d="M309.51,81.49c0.19,0.13,0.38,0.27,0.58,0.41c-0.88,0.4-1.61,0.73-2.35,1.06c0-0.49,0-0.98,0.01-1.47
		c0.15-0.03,0.3-0.07,0.45-0.1c0.2,0.01,0.41,0.01,0.61,0.02c0.14,0.01,0.28,0.03,0.42,0.04C309.31,81.47,309.41,81.48,309.51,81.49
		z"/>
	<path class="st22" d="M292.01,103.27c0.84,0.05,1.67,0.1,2.51,0.15c-0.85,0.01-1.7,0.02-2.55,0.04
		C291.98,103.39,291.99,103.33,292.01,103.27z"/>
	<path class="st22" d="M288.43,71.46c0.02,0.69,0.03,1.37,0.05,2.06C288.46,72.83,288.45,72.15,288.43,71.46z"/>
	<path class="st22" d="M313.95,103.39c0.01-0.07,0.03-0.13,0.05-0.2c0.42,0.03,0.84,0.06,1.27,0.09c-0.09,0.07-0.17,0.14-0.26,0.21
		C314.65,103.47,314.3,103.43,313.95,103.39z"/>
	<path class="st22" d="M294.49,108.23c0.26,0.08,0.52,0.15,0.78,0.23c-0.44-0.03-0.88-0.05-1.32-0.08
		C294.13,108.34,294.31,108.29,294.49,108.23z"/>
	<path class="st22" d="M314.99,70.51c0.02,0.06,0.03,0.13,0.04,0.2c-0.36-0.01-0.72-0.03-1.08-0.04
		C314.31,70.61,314.65,70.56,314.99,70.51z"/>
	<path class="st22" d="M306.47,81.45c0.27,0,0.54,0,0.81,0C307.01,81.45,306.74,81.45,306.47,81.45z"/>
	<path class="st22" d="M302.03,108.31c-0.11,0.01-0.21,0.01-0.32,0.02C301.82,108.32,301.92,108.31,302.03,108.31z"/>
	<path class="st22" d="M288.57,70.64c0.01,0.08-0.02,0.12-0.1,0.13c-0.02-0.03-0.05-0.05-0.07-0.08
		C288.46,70.67,288.52,70.65,288.57,70.64z"/>
	<path class="st23" d="M196.23,35.51c0.09,0.03,0.19,0.06,0.28,0.09C196.41,35.57,196.32,35.54,196.23,35.51z"/>
	<path class="st23" d="M311.21,35.52c0.1,0.04,0.2,0.08,0.29,0.12C311.41,35.6,311.31,35.56,311.21,35.52z"/>
	<path class="st23" d="M328.31,35.49c0.07,0.06,0.13,0.12,0.2,0.18C328.45,35.61,328.38,35.55,328.31,35.49z"/>
	<path class="st14" d="M220.75,80.23c-3-0.02-6.01-0.05-9.01-0.07c-0.08,0-0.16,0.01-0.24,0.01c-2.11,0-4.22,0-6.5,0
		c0,0.63,0,1.1,0,1.58c0.04,0.33,0.09,0.66,0.13,0.99c0,0.17,0,0.34,0.01,0.52c-0.02,0.02-0.07,0.05-0.07,0.07
		c0.01,0.06,0.04,0.12,0.06,0.17c0,4.28,0,8.56,0,13.05c5.08-0.77,10.15-1.55,15.44-2.35c-0.12,1.63-0.24,3.35-0.39,5.06
		c-0.12,1.43-0.27,2.86-0.42,4.29c-0.22,2.17-0.47,4.33-0.68,6.5c-0.14,1.48-0.22,2.96-0.34,4.44c-0.25,3.12-0.48,6.25-0.78,9.37
		c-0.11,1.17-1.11,1.41-2.04,1.66c-5.5,1.5-10.99,3.01-16.49,4.53c-1.15,0.32-2.28,0.67-3.58,1.05c-0.05-0.51-0.12-0.9-0.13-1.29
		c-0.01-2.54,0.05-5.08-0.02-7.62c-0.03-1.05,0.39-1.4,1.35-1.65c3.09-0.79,6.14-1.72,9.21-2.57c0.71-0.2,1.44-0.4,2.17-0.44
		c0.96-0.05,1.18-0.7,1.27-1.41c0.15-1.1,0.16-2.22,0.29-3.32c0.22-1.87,0.5-3.73,0.71-5.6c0.07-0.61,0.01-1.23,0.01-2.02
		c-2.18,0.33-4.23,0.63-6.28,0.95c-1.17,0.18-2.34,0.4-3.5,0.61c-1.28,0.23-2.57,0.46-3.85,0.71c-0.88,0.17-1.37-0.07-1.35-1.05
		c0.02-0.67-0.02-1.33-0.02-2c0-10.54,0-21.08,0-31.62c0-0.62,0-1.24,0-1.96c0.61-0.05,1.14-0.13,1.67-0.13
		c7.87,0.02,15.74,0.04,23.62,0.07c1.52,0.01,1.68,0.3,1.46,1.91c-0.31,2.36-0.51,4.74-0.76,7.11
		C221.4,79.93,221.08,80.08,220.75,80.23z"/>
	<path class="st8" d="M220.75,80.23c0.33-0.15,0.65-0.3,0.98-0.45C221.69,80.51,221.58,80.57,220.75,80.23z"/>
	<path class="st8" d="M205.14,82.74c-0.04-0.33-0.09-0.66-0.13-0.99C205.05,82.08,205.09,82.41,205.14,82.74z"/>
	<path class="st8" d="M211.5,80.17c0.08,0,0.16-0.01,0.24-0.01C211.66,80.16,211.58,80.16,211.5,80.17z"/>
	<path class="st8" d="M205.14,83.5c-0.02-0.06-0.05-0.11-0.06-0.17c0-0.02,0.04-0.05,0.07-0.07
		C205.14,83.33,205.14,83.42,205.14,83.5z"/>
	<path class="st3" d="M70.5,81.47c-0.99,3.63-0.29,7.33-0.5,11c-2.33-0.01-4.66-0.01-7-0.02c-1.51-0.09-3.02-0.21-4.53-0.25
		c-0.24-0.01-0.49,0.34-0.74,0.52c-0.71,0.16-1.16-0.18-1.21-0.85c-0.19-2.71-0.33-5.42-0.49-8.13c1.04-0.87,2.29-0.71,3.52-0.76
		c2.97-0.13,5.94-0.28,8.91-0.53c0.56-0.05,1.55,0.15,1.53-0.98C70.17,81.48,70.33,81.48,70.5,81.47z"/>
	<path class="st7" d="M70,81.48c0.01,1.13-0.97,0.93-1.53,0.98c-2.96,0.25-5.94,0.4-8.91,0.53c-1.23,0.05-2.48-0.11-3.52,0.76
		c0-0.74-0.01-1.48-0.01-2.21c0.27-0.06,0.53-0.12,0.8-0.18c0.39,0,0.77,0,1.16,0c0.1,0,0.19,0,0.29-0.01
		c3.41,0,6.83,0.01,10.24,0.02C69.01,81.37,69.5,81.44,70,81.48z"/>
	<path class="st8" d="M89.25,125.52c-2.42,0.66-4.83,1.32-7.25,1.97c0.06-1.27,1.09-1.26,1.95-1.48c0.98-0.26,1.97-0.5,2.95-0.77
		C87.73,125,88.56,124.64,89.25,125.52z"/>
	<path class="st16" d="M57.74,92.72c0.25-0.18,0.5-0.53,0.74-0.52c1.51,0.04,3.02,0.16,4.53,0.25
		C61.25,92.54,59.49,92.63,57.74,92.72z"/>
	<path class="st8" d="M82.49,103.27c-0.58,0.01-1.16,0.01-1.75,0.02C81.32,103.08,81.9,102.5,82.49,103.27z"/>
	<path class="st8" d="M77.74,103.2c-0.58,0-1.16,0-1.74-0.01C76.58,103.19,77.16,103.19,77.74,103.2z"/>
	<path class="st9" d="M95.76,81.26c-0.26,0.05-0.52,0.11-0.77,0.16C95.24,81.37,95.5,81.31,95.76,81.26z"/>
	<path class="st9" d="M56.83,81.35c-0.27,0.06-0.53,0.12-0.8,0.18C56.29,81.47,56.56,81.41,56.83,81.35z"/>
	<path class="st9" d="M94.52,81.34c-0.18,0-0.36-0.01-0.54-0.01C94.16,81.33,94.34,81.33,94.52,81.34z"/>
	<path class="st9" d="M58.27,81.35c-0.1,0-0.19,0-0.29,0.01C58.08,81.35,58.17,81.35,58.27,81.35z"/>
	<path class="st16" d="M92.25,70.7c0.08,0,0.17,0,0.25,0C92.42,70.7,92.33,70.7,92.25,70.7z"/>
	<path class="st24" d="M333,85.53c-0.04,0.32-0.22,0.71-0.1,0.94c1.03,1.99-0.4,3.3-1.27,4.75c-0.25,0.43-0.93,0.72-0.14,1.23
		c-3.39,0.06-6.77,0.14-10.16,0.17c-0.26,0-0.53-0.32-1.08-0.67C324.46,89.41,328.63,87.28,333,85.53z"/>
	<path class="st20" d="M336.71,124.25c-0.25,0.29-0.45,0.74-0.75,0.83c-3.29,0.93-6.6,1.78-9.89,2.69
		c-2.07,0.57-4.13,1.22-6.19,1.81c-1.37,0.39-2.76,0.74-4.14,1.11c0.21-1.46,1.57-1.35,2.48-1.63c3.46-1.05,6.96-1.97,10.47-2.88
		C331.35,125.49,334.04,124.89,336.71,124.25z"/>
	<path class="st6" d="M340.53,70.62c1.17-0.12,1.04,0.63,0.91,1.37c-0.47-0.25-0.95-0.7-1.42-0.71c-1.86-0.01-3.72,0.2-5.58,0.19
		c-2.06,0-4.12-0.19-6.18-0.22c-2.79-0.04-5.57,0.01-8.36-0.03c-0.38-0.01-0.76-0.27-1.15-0.42c6.61-0.02,13.21-0.03,19.82-0.06
		C339.22,70.75,339.87,70.67,340.53,70.62z"/>
	<path class="st22" d="M340.53,70.62c-0.66,0.05-1.31,0.13-1.97,0.14c-6.61,0.03-13.21,0.04-19.82,0.06
		c-0.67-0.04-1.35-0.08-2.02-0.13c0.28-0.06,0.56-0.16,0.84-0.16c7.41-0.01,14.83-0.02,22.24-0.01
		C340.04,70.51,340.28,70.58,340.53,70.62z"/>
	<path class="st24" d="M317,119.51c0.14-1.14,0.8-1.37,1.85-1.22c0.48,0.07,1.06-0.13,1.52-0.37c0.89-0.45,1.71-1.14,2.65-0.13
		C321.01,118.36,319.01,118.94,317,119.51z"/>
	<path class="st20" d="M326.23,103.42c-1.23-0.01-2.46-0.02-3.69-0.04c-0.01-0.06-0.03-0.12-0.05-0.17c0.37-0.16,0.72-0.4,1.11-0.46
		c1.08-0.18,2.18-0.31,3.27-0.4c0.58-0.05,0.88,0.43,0.61,0.91c-0.31,0.03-0.62,0.07-0.92,0.1
		C326.45,103.38,326.34,103.4,326.23,103.42z"/>
	<path class="st24" d="M335.25,84.27c-0.15,1.01-0.95,0.65-1.54,0.73C334.22,84.76,334.74,84.52,335.25,84.27z"/>
	<path class="st22" d="M319.04,103.4c-0.85-0.03-1.7-0.06-2.56-0.09C317.33,103.33,318.19,103.37,319.04,103.4z"/>
	<path class="st20" d="M320.24,103.22c0.11-0.14,0.22-0.29,0.32-0.43c0.15,0.14,0.3,0.28,0.44,0.43
		C320.75,103.22,320.5,103.22,320.24,103.22z"/>
	<path class="st22" d="M320.24,103.22c0.26,0,0.51,0,0.77,0c0.04,0.04,0.06,0.1,0.07,0.15c-0.54,0.01-1.08,0.01-1.62,0.02
		C319.72,103.33,319.98,103.28,320.24,103.22z"/>
	<path class="st24" d="M333.66,85.05c-0.02,0.18-0.04,0.36-0.06,0.54c-0.13-0.05-0.25-0.1-0.38-0.15
		C333.37,85.31,333.51,85.18,333.66,85.05z"/>
	<path class="st20" d="M321.49,103.22c0.09-0.12,0.17-0.24,0.26-0.36c0.09,0.12,0.17,0.24,0.26,0.36
		C321.84,103.22,321.66,103.22,321.49,103.22z"/>
	<path class="st22" d="M321.49,103.22c0.17,0,0.35,0,0.52,0c0.16,0,0.33,0,0.49,0c0.02,0.06,0.03,0.11,0.05,0.17
		c-0.37-0.01-0.75-0.01-1.12-0.02C321.43,103.31,321.45,103.26,321.49,103.22z"/>
	<path class="st6" d="M341.44,72.51c-0.06,0.25-0.12,0.51-0.18,0.76C341.32,73.01,341.38,72.76,341.44,72.51z"/>
	<path class="st22" d="M308.8,81.41c-0.2-0.01-0.41-0.01-0.61-0.02C308.4,81.4,308.6,81.41,308.8,81.41z"/>
	<path class="st24" d="M323.81,117.57c0.11-0.03,0.22-0.05,0.34-0.08C324.04,117.52,323.92,117.55,323.81,117.57z"/>
	<path class="st22" d="M309.51,81.49c-0.1-0.01-0.19-0.02-0.29-0.04C309.31,81.47,309.41,81.48,309.51,81.49z"/>
	<path class="st22" d="M295.98,108.47c0.1,0,0.2-0.01,0.29-0.01C296.17,108.46,296.08,108.47,295.98,108.47z"/>
	<path class="st22" d="M299.71,108.4c0.11-0.01,0.22-0.03,0.32-0.04C299.93,108.37,299.82,108.39,299.71,108.4z"/>
	<path class="st22" d="M326.23,103.42c0.11-0.02,0.22-0.05,0.33-0.07C326.45,103.38,326.34,103.4,326.23,103.42z"/>
</g>
</svg>
